<mxfile host="65bd71144e">
    <diagram id="Z47sIh4CaTl5k4VbPAMm" name="Page-1">
        <mxGraphModel dx="1551" dy="827" grid="0" gridSize="10" guides="1" tooltips="1" connect="1" arrows="1" fold="1" page="0" pageScale="1" pageWidth="850" pageHeight="1100" math="0" shadow="0">
            <root>
                <mxCell id="0"/>
                <mxCell id="1" parent="0"/>
                <mxCell id="8" style="edgeStyle=none;html=1;entryX=-0.045;entryY=0.563;entryDx=0;entryDy=0;entryPerimeter=0;fontSize=20;startArrow=ERmany;startFill=0;endArrow=ERmany;endFill=0;" edge="1" parent="1">
                    <mxGeometry relative="1" as="geometry">
                        <mxPoint x="-10.997762532903925" y="347" as="sourcePoint"/>
                        <mxPoint x="336.1511999999999" y="172.99699999999996" as="targetPoint"/>
                        <Array as="points">
                            <mxPoint x="116" y="182"/>
                        </Array>
                    </mxGeometry>
                </mxCell>
                <mxCell id="10" value="connect?&amp;nbsp;&lt;br&gt;user name: xxx" style="edgeLabel;html=1;align=center;verticalAlign=middle;resizable=0;points=[];fontSize=15;" vertex="1" connectable="0" parent="8">
                    <mxGeometry x="-0.1659" y="-2" relative="1" as="geometry">
                        <mxPoint x="-68" y="57" as="offset"/>
                    </mxGeometry>
                </mxCell>
                <mxCell id="13" value="accept" style="edgeLabel;html=1;align=center;verticalAlign=middle;resizable=0;points=[];fontSize=15;" vertex="1" connectable="0" parent="8">
                    <mxGeometry x="0.6572" y="-1" relative="1" as="geometry">
                        <mxPoint x="5" y="-4" as="offset"/>
                    </mxGeometry>
                </mxCell>
                <mxCell id="14" value="create listener thread" style="edgeLabel;html=1;align=center;verticalAlign=middle;resizable=0;points=[];fontSize=15;" vertex="1" connectable="0" parent="8">
                    <mxGeometry x="-0.0831" y="3" relative="1" as="geometry">
                        <mxPoint x="10" y="-3" as="offset"/>
                    </mxGeometry>
                </mxCell>
                <mxCell id="24" value="1" style="edgeLabel;html=1;align=center;verticalAlign=middle;resizable=0;points=[];fontSize=15;" vertex="1" connectable="0" parent="8">
                    <mxGeometry x="-0.9084" y="-3" relative="1" as="geometry">
                        <mxPoint x="-4" y="-4" as="offset"/>
                    </mxGeometry>
                </mxCell>
                <mxCell id="25" value="2" style="edgeLabel;html=1;align=center;verticalAlign=middle;resizable=0;points=[];fontSize=15;" vertex="1" connectable="0" parent="8">
                    <mxGeometry x="0.9243" y="-1" relative="1" as="geometry">
                        <mxPoint as="offset"/>
                    </mxGeometry>
                </mxCell>
                <mxCell id="26" style="edgeStyle=none;html=1;fontSize=15;startArrow=none;startFill=0;endArrow=classic;endFill=1;exitX=1;exitY=0.25;exitDx=0;exitDy=0;entryX=0;entryY=0.782;entryDx=0;entryDy=0;entryPerimeter=0;" edge="1" parent="1" source="2" target="7">
                    <mxGeometry relative="1" as="geometry"/>
                </mxCell>
                <mxCell id="27" value="send msg" style="edgeLabel;html=1;align=center;verticalAlign=middle;resizable=0;points=[];fontSize=15;" vertex="1" connectable="0" parent="26">
                    <mxGeometry x="-0.1257" y="-1" relative="1" as="geometry">
                        <mxPoint x="6" y="-11" as="offset"/>
                    </mxGeometry>
                </mxCell>
                <mxCell id="2" value="Client 1" style="whiteSpace=wrap;html=1;fontSize=20;" vertex="1" parent="1">
                    <mxGeometry x="-131" y="347" width="120" height="60" as="geometry"/>
                </mxCell>
                <mxCell id="3" value="Client 2" style="whiteSpace=wrap;html=1;fontSize=20;" vertex="1" parent="1">
                    <mxGeometry x="59" y="471" width="120" height="60" as="geometry"/>
                </mxCell>
                <mxCell id="4" value="Client 3" style="whiteSpace=wrap;html=1;fontSize=20;" vertex="1" parent="1">
                    <mxGeometry x="371" y="473" width="120" height="60" as="geometry"/>
                </mxCell>
                <mxCell id="5" value="Client 4" style="whiteSpace=wrap;html=1;fontSize=20;" vertex="1" parent="1">
                    <mxGeometry x="645" y="445" width="120" height="60" as="geometry"/>
                </mxCell>
                <mxCell id="16" style="edgeStyle=none;html=1;fontSize=15;startArrow=blockThin;startFill=1;endArrow=blockThin;endFill=1;" edge="1" parent="1" source="7" target="3">
                    <mxGeometry relative="1" as="geometry"/>
                </mxCell>
                <mxCell id="18" value="broadcast msg" style="edgeLabel;html=1;align=center;verticalAlign=middle;resizable=0;points=[];fontSize=15;" vertex="1" connectable="0" parent="16">
                    <mxGeometry x="-0.3902" relative="1" as="geometry">
                        <mxPoint as="offset"/>
                    </mxGeometry>
                </mxCell>
                <mxCell id="7" value="" style="aspect=fixed;perimeter=ellipsePerimeter;html=1;align=center;shadow=0;dashed=0;spacingTop=3;image;image=img/lib/active_directory/generic_server.svg;fontSize=20;" vertex="1" parent="1">
                    <mxGeometry x="340" y="97" width="66.64" height="119" as="geometry"/>
                </mxCell>
                <mxCell id="19" style="edgeStyle=none;html=1;fontSize=15;startArrow=none;startFill=0;endArrow=blockThin;endFill=1;entryX=0.5;entryY=0;entryDx=0;entryDy=0;" edge="1" parent="1" source="7" target="4">
                    <mxGeometry relative="1" as="geometry">
                        <mxPoint x="355.56939386499175" y="210.97362987468478" as="sourcePoint"/>
                        <mxPoint x="151.65156482861403" y="481" as="targetPoint"/>
                    </mxGeometry>
                </mxCell>
                <mxCell id="20" value="broadcast msg" style="edgeLabel;html=1;align=center;verticalAlign=middle;resizable=0;points=[];fontSize=15;" vertex="1" connectable="0" parent="19">
                    <mxGeometry x="-0.3902" relative="1" as="geometry">
                        <mxPoint as="offset"/>
                    </mxGeometry>
                </mxCell>
                <mxCell id="21" value="&lt;span style=&quot;font-size: 20px;&quot;&gt;server 127.0.0.1/1234&lt;/span&gt;" style="text;html=1;align=center;verticalAlign=middle;resizable=0;points=[];autosize=1;strokeColor=none;fillColor=none;fontSize=15;" vertex="1" parent="1">
                    <mxGeometry x="274" y="56" width="213" height="36" as="geometry"/>
                </mxCell>
                <mxCell id="22" style="edgeStyle=none;html=1;fontSize=15;startArrow=none;startFill=0;endArrow=blockThin;endFill=1;entryX=0.308;entryY=-0.017;entryDx=0;entryDy=0;entryPerimeter=0;exitX=1;exitY=0.75;exitDx=0;exitDy=0;" edge="1" parent="1" source="7" target="5">
                    <mxGeometry relative="1" as="geometry">
                        <mxPoint x="356.76543127753325" y="202.44023525368357" as="sourcePoint"/>
                        <mxPoint x="151.1468795355588" y="481" as="targetPoint"/>
                    </mxGeometry>
                </mxCell>
                <mxCell id="23" value="broadcast msg" style="edgeLabel;html=1;align=center;verticalAlign=middle;resizable=0;points=[];fontSize=15;" vertex="1" connectable="0" parent="22">
                    <mxGeometry x="-0.3902" relative="1" as="geometry">
                        <mxPoint x="16" as="offset"/>
                    </mxGeometry>
                </mxCell>
            </root>
        </mxGraphModel>
    </diagram>
</mxfile>